<?xml version="1.0" encoding="UTF-8"?>
<svg id="svg4" xmlns="http://www.w3.org/2000/svg" version="1.1" xmlns:inkscape="http://www.inkscape.org/namespaces/inkscape" xmlns:sodipodi="http://sodipodi.sourceforge.net/DTD/sodipodi-0.dtd" xmlns:svg="http://www.w3.org/2000/svg" xmlns:xlink="http://www.w3.org/1999/xlink" viewBox="0 0 2420 1972">
  <!-- Generator: Adobe Illustrator 29.5.1, SVG Export Plug-In . SVG Version: 2.1.0 Build 141)  -->
  <defs>
    <style>
      .st0 {
        fill: #fff;
      }

      .st1 {
        fill: none;
      }

      .st2 {
        clip-path: url(#clippath);
      }
    </style>
    <clipPath id="clippath">
      <rect class="st1" y="0" width="2420" height="1971.5"/>
    </clipPath>
  </defs>
  <sodipodi:namedview id="namedview6" bordercolor="#666666" borderopacity="1.0" inkscape:current-layer="svg4" inkscape:cx="361" inkscape:cy="89" inkscape:deskcolor="#d1d1d1" inkscape:pagecheckerboard="0" inkscape:pageopacity="0.0" inkscape:pageshadow="2" inkscape:showpageshadow="0" inkscape:window-height="1051" inkscape:window-maximized="1" inkscape:window-width="1728" inkscape:window-x="0" inkscape:window-y="1088" inkscape:zoom="0.5" pagecolor="#ffffff" showgrid="false">
    <inkscape:grid id="grid4569" originx="-1e-05" originy="0" type="xygrid"/>
  </sodipodi:namedview>
  <g class="st2">
    <g>
      <path class="st0" d="M311.9,1649.6h-122.7v318.9h-65.6v-318.9H0v-57.6h311.9v57.6h0Z"/>
      <path class="st0" d="M594.6,1684.9c-3-3-7.5-7-14.4-10.9-6.5-4.5-14.9-8.4-23.8-12.4s-19.4-7-29.8-9.9c-10.9-2.5-21.9-4-33.3-4-22.8,0-39.7,4-50.7,11.9-10.9,7.9-16.9,19.9-16.9,35.3s3.5,19.9,9.9,26.3c6.5,6.5,16.9,11.9,29.8,16.4,13.4,4.5,29.8,8.9,50.2,13.9,25.3,6,46.7,13.4,65.1,21.9,18.4,8.4,32.3,19.9,42.2,33.8s14.9,31.8,14.9,54.6-3.5,36.3-10.9,50.2c-7.5,13.9-17.4,25.3-29.8,34.3-12.9,8.9-27.3,15.4-44.2,19.4-16.9,4-34.8,6-53.6,6s-37.3-2-56.1-6c-18.4-4-36.3-9.4-53.1-16.9-16.9-7.5-32.8-16.4-47.2-26.8l29.8-56.6c4,4.5,9.9,9.4,18.4,14.4,8.4,5,18.4,10.4,29.8,15.4,11.9,5,24.3,9.4,38.2,12.9,13.9,3.5,27.8,5.5,41.7,5.5,21.4,0,38.2-4,49.7-11.4s17.4-18.4,17.4-32.8-4-21.4-12.4-28.8-19.9-12.9-34.8-18.4c-14.9-5-32.8-10.4-53.6-15.4-24.3-6.5-44.7-13.9-61.1-22.4-16.4-7.9-28.3-18.4-36.8-30.8-7.9-12.4-12.4-28.3-12.4-47.7s6-46.2,18.4-63.6c12.4-17.4,28.8-30.3,49.2-39.2,20.9-8.9,43.7-13.4,69-13.4s34.3,2,49.7,5.5c15.4,3.5,29.8,8.9,43.7,14.9,13.4,6.5,25.8,13.4,36.3,21.4l-29.8,53.6h1.5Z"/>
      <path class="st0" d="M966.6,1910.9v57.6h-259.8v-376.5h255.3v57.6h-189.2v100.3h163.9v53.6h-163.9v107.3h194.2-.5Z"/>
      <path class="st0" d="M1102.2,1712.7v255.8h-65.6v-376.5h53.6l204.6,261.3v-260.8h65.1v376h-55.6l-202.2-255.8h0Z"/>
      <path class="st0" d="M1731.1,1649.6h-122.7v318.9h-65.6v-318.9h-123.7v-57.6h311.9v57.6h0Z"/>
      <path class="st0" d="M2050.4,1910.9v57.6h-259.8v-376.5h255.3v57.6h-189.2v100.3h163.9v53.6h-163.9v107.3h194.2-.5Z"/>
      <path class="st0" d="M2120.5,1968.5v-376.5h165.4c16.9,0,32.8,3.5,46.7,10.4,14.4,7,26.8,16.4,37.8,28.3,10.9,11.9,18.9,24.8,24.8,39.7,5.5,14.9,8.4,29.8,8.4,45.2s-3,31.8-8.9,46.7c-6,14.9-13.9,27.8-24.8,38.7s-23.3,19.4-37.8,25.3l87.4,142.1h-73l-79.5-129.6h-81v129.6h-66.1.5ZM2186.5,1781.7h98.8c9.9,0,18.9-3,26.8-8.9,7.9-6,14.4-13.9,18.9-24.3,4.5-9.9,7-21.4,7-33.3s-2.5-23.3-7.9-33.3-12.4-17.9-20.9-23.3c-8.4-6-17.4-8.9-26.8-8.9h-95.4v132.1h-.5Z"/>
      <path class="st0" d="M941.3,771.4c-66.6,0-120.7-54.1-120.7-120.7s54.1-120.7,120.7-120.7,120.7,54.1,120.7,120.7-54.1,120.7-120.7,120.7ZM941.3,600.5c-27.8,0-50.2,22.4-50.2,50.2s22.4,50.2,50.2,50.2,50.2-22.4,50.2-50.2-22.4-50.2-50.2-50.2Z"/>
      <path class="st0" d="M941.3,901c-138.1,0-250.3-112.3-250.3-250.3s112.3-250.3,250.3-250.3,250.3,112.3,250.3,250.3-112.3,250.3-250.3,250.3ZM941.3,470.9c-99.3,0-179.8,80.5-179.8,179.8s80.5,179.8,179.8,179.8,179.8-80.5,179.8-179.8-80.5-179.8-179.8-179.8Z"/>
      <path class="st0" d="M941.3,1030.2c-209.6,0-379.5-170.4-379.5-379.5s170.4-379.5,379.5-379.5,379.5,170.4,379.5,379.5-170.4,379.5-379.5,379.5ZM941.3,341.2c-170.9,0-309.5,138.6-309.5,309.5s138.6,309.5,309.5,309.5,309.5-138.6,309.5-309.5-138.6-309.5-309.5-309.5Z"/>
      <path class="st0" d="M941.3,1159.8c-280.6,0-509.1-228.5-509.1-509.1s228-509.1,509.1-509.1,509.1,228.5,509.1,509.1-228.5,509.1-509.1,509.1M941.3,211.6c-241.9,0-439.1,196.7-439.1,439.1s196.7,439.1,439.1,439.1,439.1-196.7,439.1-439.1-196.7-439.1-439.1-439.1Z"/>
      <path class="st0" d="M941.3,1289.5c-352.2,0-638.8-286.6-638.8-638.8S588.6,11.9,941.3,11.9s638.8,286.6,638.8,638.8-286.6,638.8-638.8,638.8M941.3,82.5c-313.4,0-568.2,254.8-568.2,568.2s254.8,568.2,568.2,568.2,568.2-254.8,568.2-568.2S1254.7,82.5,941.3,82.5Z"/>
      <path class="st0" d="M1492.1,0C1415.6,0,1342.1,13.4,1274.1,37.8c216.6,118.7,363.6,349.2,363.6,613.4s-147,494.2-363.6,612.9c68.1,24.3,141.6,37.3,217.6,37.3,359.1,0,650.7-291.1,650.7-650.7S1851.8,0,1492.1,0Z"/>
    </g>
  </g>
</svg>