<?xml version="1.0" encoding="UTF-8"?>
<svg id="svg4" xmlns="http://www.w3.org/2000/svg" version="1.1" xmlns:inkscape="http://www.inkscape.org/namespaces/inkscape" xmlns:sodipodi="http://sodipodi.sourceforge.net/DTD/sodipodi-0.dtd" xmlns:svg="http://www.w3.org/2000/svg" xmlns:xlink="http://www.w3.org/1999/xlink" viewBox="0 0 487.6 396.9">
  <!-- Generator: Adobe Illustrator 29.5.1, SVG Export Plug-In . SVG Version: 2.1.0 Build 141)  -->
  <defs>
    <style>
      .st0 {
        fill: #fff;
      }

      .st1 {
        fill: none;
      }

      .st2 {
        clip-path: url(#clippath);
      }
    </style>
    <clipPath id="clippath">
      <rect class="st1" width="487.2" height="396.9"/>
    </clipPath>
  </defs>
  <sodipodi:namedview id="namedview6" bordercolor="#666666" borderopacity="1.0" inkscape:current-layer="svg4" inkscape:cx="361" inkscape:cy="89" inkscape:deskcolor="#d1d1d1" inkscape:pagecheckerboard="0" inkscape:pageopacity="0.0" inkscape:pageshadow="2" inkscape:showpageshadow="0" inkscape:window-height="1051" inkscape:window-maximized="1" inkscape:window-width="1728" inkscape:window-x="0" inkscape:window-y="1088" inkscape:zoom="0.5" pagecolor="#ffffff" showgrid="false">
    <inkscape:grid id="grid4569" originx="-1e-05" originy="0" type="xygrid"/>
  </sodipodi:namedview>
  <g class="st2">
    <g>
      <path class="st0" d="M62.8,332.1h-24.7v64.2h-13.2v-64.2H0v-11.6h62.8v11.6Z"/>
      <path class="st0" d="M119.7,339.2c-.6-.6-1.5-1.4-2.9-2.2-1.3-.9-3-1.7-4.8-2.5-1.8-.8-3.9-1.4-6-2-2.2-.5-4.4-.8-6.7-.8-4.6,0-8,.8-10.2,2.4s-3.4,4-3.4,7.1.7,4,2,5.3c1.3,1.3,3.4,2.4,6,3.3,2.7.9,6,1.8,10.1,2.8,5.1,1.2,9.4,2.7,13.1,4.4,3.7,1.7,6.5,4,8.5,6.8,2,2.8,3,6.4,3,11s-.7,7.3-2.2,10.1c-1.5,2.8-3.5,5.1-6,6.9-2.6,1.8-5.5,3.1-8.9,3.9-3.4.8-7,1.2-10.8,1.2s-7.5-.4-11.3-1.2c-3.7-.8-7.3-1.9-10.7-3.4-3.4-1.5-6.6-3.3-9.5-5.4l6-11.4c.8.9,2,1.9,3.7,2.9,1.7,1,3.7,2.1,6,3.1,2.4,1,4.9,1.9,7.7,2.6,2.8.7,5.6,1.1,8.4,1.1,4.3,0,7.7-.8,10-2.3,2.3-1.5,3.5-3.7,3.5-6.6s-.8-4.3-2.5-5.8-4-2.6-7-3.7c-3-1-6.6-2.1-10.8-3.1-4.9-1.3-9-2.8-12.3-4.5-3.3-1.6-5.7-3.7-7.4-6.2-1.6-2.5-2.5-5.7-2.5-9.6s1.2-9.3,3.7-12.8c2.5-3.5,5.8-6.1,9.9-7.9,4.2-1.8,8.8-2.7,13.9-2.7s6.9.4,10,1.1,6,1.8,8.8,3c2.7,1.3,5.2,2.7,7.3,4.3l-6,10.8h0Z"/>
      <path class="st0" d="M194.6,384.7v11.6h-52.3v-75.8h51.4v11.6h-38.1v20.2h33v10.8h-33v21.6h39.1Z"/>
      <path class="st0" d="M221.9,344.8v51.5h-13.2v-75.8h10.8l41.2,52.6v-52.5h13.1v75.7h-11.2l-40.7-51.5Z"/>
      <path class="st0" d="M348.5,332.1h-24.7v64.2h-13.2v-64.2h-24.9v-11.6h62.8v11.6Z"/>
      <path class="st0" d="M412.8,384.7v11.6h-52.3v-75.8h51.4v11.6h-38.1v20.2h33v10.8h-33v21.6h39.1Z"/>
      <path class="st0" d="M426.9,396.3v-75.8h33.3c3.4,0,6.6.7,9.4,2.1,2.9,1.4,5.4,3.3,7.6,5.7,2.2,2.4,3.8,5,5,8,1.1,3,1.7,6,1.7,9.1s-.6,6.4-1.8,9.4c-1.2,3-2.8,5.6-5,7.8s-4.7,3.9-7.6,5.1l17.6,28.6h-14.7l-16-26.1h-16.3v26.1h-13.3ZM440.2,358.7h19.9c2,0,3.8-.6,5.4-1.8,1.6-1.2,2.9-2.8,3.8-4.9.9-2,1.4-4.3,1.4-6.7s-.5-4.7-1.6-6.7-2.5-3.6-4.2-4.7c-1.7-1.2-3.5-1.8-5.4-1.8h-19.2v26.6h0Z"/>
      <path class="st0" d="M189.5,155.3c-13.4,0-24.3-10.9-24.3-24.3s10.9-24.3,24.3-24.3,24.3,10.9,24.3,24.3-10.9,24.3-24.3,24.3ZM189.5,120.9c-5.6,0-10.1,4.5-10.1,10.1s4.5,10.1,10.1,10.1,10.1-4.5,10.1-10.1-4.5-10.1-10.1-10.1Z"/>
      <path class="st0" d="M189.5,181.4c-27.8,0-50.4-22.6-50.4-50.4s22.6-50.4,50.4-50.4,50.4,22.6,50.4,50.4-22.6,50.4-50.4,50.4ZM189.5,94.8c-20,0-36.2,16.2-36.2,36.2s16.2,36.2,36.2,36.2,36.2-16.2,36.2-36.2-16.2-36.2-36.2-36.2Z"/>
      <path class="st0" d="M189.5,207.4c-42.2,0-76.4-34.3-76.4-76.4s34.3-76.4,76.4-76.4,76.4,34.3,76.4,76.4-34.3,76.4-76.4,76.4ZM189.5,68.7c-34.4,0-62.3,27.9-62.3,62.3s27.9,62.3,62.3,62.3,62.3-27.9,62.3-62.3-27.9-62.3-62.3-62.3Z"/>
      <path class="st0" d="M189.5,233.5c-56.5,0-102.5-46-102.5-102.5S132.9,28.5,189.5,28.5s102.5,46,102.5,102.5-46,102.5-102.5,102.5M189.5,42.6c-48.7,0-88.4,39.6-88.4,88.4s39.6,88.4,88.4,88.4,88.4-39.6,88.4-88.4-39.6-88.4-88.4-88.4Z"/>
      <path class="st0" d="M189.5,259.6c-70.9,0-128.6-57.7-128.6-128.6S118.5,2.4,189.5,2.4s128.6,57.7,128.6,128.6-57.7,128.6-128.6,128.6M189.5,16.6c-63.1,0-114.4,51.3-114.4,114.4s51.3,114.4,114.4,114.4,114.4-51.3,114.4-114.4S252.6,16.6,189.5,16.6Z"/>
      <path class="st0" d="M300.4,0c-15.4,0-30.2,2.7-43.9,7.6,43.6,23.9,73.2,70.3,73.2,123.5s-29.6,99.5-73.2,123.4c13.7,4.9,28.5,7.5,43.8,7.5,72.3,0,131-58.6,131-131S372.8,0,300.4,0Z"/>
    </g>
  </g>
</svg>